<?xml version="1.0" encoding="UTF-8"?>
<svg id="Layer_1" data-name="Layer 1" xmlns="http://www.w3.org/2000/svg" viewBox="0 0 40.79 43.56">
  <defs>
    <style>
      .cls-1 {
        fill: #a2847b;
      }

      .cls-2 {
        fill: #f2e7d9;
      }
    </style>
  </defs>
  <rect class="cls-2" y="5.91" width="40.79" height="37.53" rx="3.89" ry="3.89"/>
  <rect class="cls-2" x="6.48" width="9.45" height="13.09" rx="4.15" ry="4.15"/>
  <rect class="cls-2" x="25.34" width="9.45" height="13.09" rx="4.15" ry="4.15"/>
  <rect class="cls-1" x="4.82" y="16.6" width="32.26" height="21.45" rx="2.04" ry="2.04"/>
  <rect class="cls-1" x="28.59" y="3.32" width="3.57" height="6.89" rx="1.11" ry="1.11"/>
  <rect class="cls-1" x="9.57" y="3.32" width="3.57" height="6.89" rx="1.11" ry="1.11"/>
  <path class="cls-2" d="M18.3,40.23c.29-.21,.66-.19,.85-.18,1.43,.06,6.69-.01,14-.14,.61-.34,1.59-1.02,1.97-2.13,.48-1.45-.32-2.87-.63-3.41-.62-1.1-1.21-1.27-1.46-2.33-.2-.82,.1-.92-.06-1.79-.04-.2-.32-1.64-1.61-2.68-1.31-1.06-2.42-.71-2.92-1.63-.37-.68,.18-.97-.12-2-.03-.09-.46-1.48-1.85-2.16-1.3-.63-2.26-.08-2.92-.79-.29-.31-.15-.47-.54-1.42,0,0-.32-.79-.84-1.58-1.06-1.63-3.67-3.14-4.29-2.68-.41,.3,.43,1.16,.36,3.21-.03,.74-.09,1.88-.89,2.32-.36,.19-.55,.08-1.31,.16-.48,.05-2.14,.23-2.98,1.16-.46,.51-.53,1.09-.66,2.05-.15,1.16,.11,1.55-.3,2.05-.34,.41-.69,.35-1.49,.79-.15,.09-1.21,.67-1.73,1.47-.83,1.27,.31,2.13-.36,3.53-.5,1.06-1.26,.8-2.11,1.96-.99,1.35-1.29,3.48-.15,4.73,.6,.66,1.38,.85,2.65,1.16,1.94,.47,4.84,.51,5.64,.36,.03,0,.08-.02,.13,0,.45,.15-.43,1.82,.27,2.67,.58,.71,2.26,.86,2.88,.29,.78-.72-.38-2.37,.48-2.97Z"/>
  <g>
    <path class="cls-1" d="M21.09,27.33c0,.38-.02,.73-.07,1.03-.87,.73-1.56,1.34-2.08,1.82,.5,.2,.9,.48,1.18,.85,.28,.37,.43,.78,.43,1.25,0,.54-.15,1.02-.46,1.42-.3,.4-.7,.7-1.19,.91-.49,.21-1.02,.31-1.58,.31-.67,0-1.3-.16-1.87-.47-.58-.31-1-.77-1.28-1.37,.18-.3,.41-.61,.7-.94,.72,.38,1.36,.56,1.91,.56,.3,0,.54-.06,.71-.17,.17-.11,.25-.25,.25-.41s-.08-.31-.25-.44c-.16-.13-.39-.22-.69-.27-.07-.2-.16-.55-.28-1.06-.03-.18-.06-.31-.08-.4-.02-.05-.02-.08-.02-.1,.12-.23,.31-.48,.56-.74,.26-.26,.54-.52,.86-.76-.8,.03-1.68,.1-2.64,.2-.12-.18-.21-.45-.28-.83s-.1-.74-.1-1.1c0-.2,.01-.36,.04-.49,.78-.1,1.72-.16,2.82-.16,1.26,0,2.37,.07,3.31,.22,.07,.3,.11,.66,.11,1.1Z"/>
    <path class="cls-1" d="M25.62,26.13c.41,.07,.8,.17,1.16,.28,.36,.12,.61,.23,.73,.35-.47,2.41-.77,5.13-.89,8.16-.06,.02-.12,.02-.18,.02-.34,0-.83-.09-1.45-.27-.62-.18-1.02-.35-1.2-.52v-.46c0-1.46,.12-3.1,.36-4.92-.34,.34-.74,.66-1.2,.96-.24-.41-.54-1.05-.91-1.92,.5-.26,.94-.52,1.34-.8,.4-.28,.82-.61,1.26-.98,.24,0,.57,.02,.98,.1Z"/>
  </g>
</svg>