<?xml version="1.0" encoding="UTF-8"?>
<svg id="Layer_1" data-name="Layer 1" xmlns="http://www.w3.org/2000/svg" viewBox="0 0 40.79 43.45">
  <defs>
    <style>
      .cls-1 {
        fill: #a2847b;
      }

      .cls-2 {
        fill: #f2e7d9;
      }
    </style>
  </defs>
  <rect class="cls-2" y="5.91" width="40.79" height="37.53" rx="3.89" ry="3.89"/>
  <rect class="cls-2" x="6.48" y="0" width="9.45" height="13.09" rx="4.15" ry="4.15"/>
  <rect class="cls-2" x="25.34" y="0" width="9.45" height="13.09" rx="4.15" ry="4.15"/>
  <rect class="cls-1" x="4.82" y="16.6" width="32.26" height="21.45" rx="2.04" ry="2.04"/>
  <rect class="cls-1" x="28.59" y="3.32" width="3.57" height="6.89" rx="1.11" ry="1.11"/>
  <rect class="cls-1" x="9.57" y="3.32" width="3.57" height="6.89" rx="1.11" ry="1.11"/>
  <path class="cls-2" d="M20.42,36.89c-2.09,.02-4.01,.2-7.05,0-.95-.06-2.53-.2-3.52-1.26-.4-.43-.57-.87-.69-1.18-.04-.11-.72-2.01,.34-3.69,0,0,.31-.48,1.59-1.73,0,0-.25-.72-.3-.86-.29-.87,.02-1.87,.09-2.08,.53-1.63,2.06-2.48,2.41-2.67,.3-.17,1.28-.67,1.28-.67-.45-1.42-.46-1.61-.46-1.61-.08-.95,.47-2.15,1.42-2.59,.75-.35,1.93-.31,1.93-.31,0,0,9.32-.16,9.32-.16,0,0,.5-.46,.77-.43,.46,.05,1.05,1.52,.6,2.86-.45,1.32-1.89,2.43-1.89,2.43,0,0,1.9,.55,2.79,1.73,.73,.96,.7,2.22,.69,2.9,0,.44-.09,1.54-.09,1.54,0,0,.94,.74,1.16,.93,1.34,1.18,1.52,4.31-.09,5.69-.27,.23-.53,.36-.64,.41-2.55,1.2-5.83,.69-9.67,.73Z"/>
  <g>
    <path class="cls-1" d="M20.48,25.52c0,.35-.02,.67-.07,.95-.8,.67-1.43,1.23-1.9,1.67,.46,.18,.82,.44,1.08,.78,.26,.34,.39,.72,.39,1.14,0,.5-.14,.93-.42,1.3-.28,.37-.64,.65-1.09,.84-.45,.19-.93,.29-1.45,.29-.62,0-1.19-.14-1.72-.43-.53-.29-.92-.7-1.18-1.25,.16-.27,.37-.56,.64-.86,.66,.34,1.24,.52,1.75,.52,.28,0,.5-.05,.65-.15,.15-.1,.23-.23,.23-.37s-.08-.28-.23-.4-.36-.2-.63-.25c-.07-.18-.15-.51-.25-.97-.03-.16-.05-.28-.08-.36-.02-.04-.02-.07-.02-.09,.11-.21,.28-.44,.52-.68,.23-.24,.5-.47,.79-.69-.73,.03-1.54,.09-2.42,.19-.11-.16-.2-.41-.26-.76-.06-.34-.09-.68-.09-1.01,0-.18,.01-.33,.03-.45,.72-.09,1.58-.14,2.58-.14,1.16,0,2.17,.07,3.04,.2,.07,.27,.1,.61,.1,1.01Z"/>
    <path class="cls-1" d="M24.63,24.42c.38,.07,.73,.15,1.07,.26,.33,.11,.56,.21,.67,.32-.43,2.21-.7,4.7-.81,7.48-.06,.01-.11,.02-.17,.02-.32,0-.76-.08-1.33-.25-.57-.17-.94-.32-1.1-.48v-.42c0-1.33,.11-2.84,.33-4.51-.31,.31-.67,.6-1.1,.88-.22-.37-.5-.96-.84-1.76,.45-.23,.87-.48,1.23-.74,.37-.26,.75-.56,1.16-.9,.22,0,.52,.02,.9,.09Z"/>
  </g>
</svg>