<?xml version="1.0" encoding="UTF-8"?>
<svg id="Layer_1" data-name="Layer 1" xmlns="http://www.w3.org/2000/svg" viewBox="0 0 40.79 43.45">
  <defs>
    <style>
      .cls-1 {
        fill: #a2847b;
      }

      .cls-2 {
        fill: #f2e7d9;
      }
    </style>
  </defs>
  <rect class="cls-2" y="5.91" width="40.79" height="37.53" rx="3.89" ry="3.89"/>
  <rect class="cls-2" x="6.48" y="0" width="9.45" height="13.09" rx="4.15" ry="4.15"/>
  <rect class="cls-2" x="25.34" width="9.45" height="13.09" rx="4.15" ry="4.15"/>
  <rect class="cls-1" x="4.82" y="16.6" width="32.26" height="21.45" rx="2.04" ry="2.04"/>
  <rect class="cls-1" x="28.59" y="3.32" width="3.57" height="6.89" rx="1.11" ry="1.11"/>
  <rect class="cls-1" x="9.57" y="3.32" width="3.57" height="6.89" rx="1.11" ry="1.11"/>
  <g>
    <path class="cls-2" d="M15.31,24.07c.25-.13,.5-.19,.77-.19,.35,0,.68,.11,.99,.34,.31,.23,.56,.56,.74,1.01,.19,.44,.28,.98,.28,1.6,0,.7-.13,1.31-.39,1.84-.26,.53-.6,.94-1.03,1.22-.42,.29-.87,.43-1.34,.43-.5,0-.94-.14-1.34-.43-.1,1.17-.14,2.31-.14,3.42-.41,0-.86-.06-1.34-.17s-.87-.29-1.14-.53c.06-3.67,.35-6.58,.86-8.72,.33-.02,.73,.02,1.21,.12s.89,.22,1.24,.36l-.04,.26c.2-.24,.42-.42,.67-.55Zm.54,3.1c0-.29-.06-.51-.17-.67-.11-.16-.25-.23-.42-.23-.22,0-.42,.12-.6,.36s-.29,.56-.32,.97h0c0,.26,.04,.45,.16,.58,.11,.13,.26,.19,.43,.19,.22,0,.42-.09,.6-.28,.18-.18,.29-.43,.31-.73v-.19Z"/>
    <path class="cls-2" d="M19.01,25.56c.31-.56,.71-.98,1.2-1.26,.49-.28,1-.43,1.53-.43,.46,0,.88,.11,1.27,.33,.39,.22,.71,.55,.94,.99,.24,.44,.35,.98,.35,1.61,0,.73-.16,1.36-.47,1.88-.31,.53-.72,.93-1.21,1.21-.5,.28-1.01,.41-1.55,.41-.46,0-.88-.1-1.26-.31-.38-.2-.69-.51-.92-.93s-.35-.92-.35-1.52c0-.77,.15-1.43,.46-1.99Zm3.22,.53c-.1-.14-.22-.22-.36-.22-.13,0-.25,.05-.37,.16s-.22,.26-.3,.47c-.08,.2-.12,.44-.12,.7,0,.28,.05,.49,.14,.64,.1,.15,.22,.22,.36,.22,.12,0,.24-.06,.37-.17,.12-.11,.23-.27,.31-.47s.12-.43,.12-.7c0-.29-.05-.5-.14-.65Z"/>
    <path class="cls-2" d="M25.23,25.56c.31-.56,.71-.98,1.2-1.26,.49-.28,1-.43,1.53-.43,.46,0,.88,.11,1.27,.33,.39,.22,.71,.55,.94,.99,.24,.44,.35,.98,.35,1.61,0,.73-.16,1.36-.47,1.88-.31,.53-.72,.93-1.21,1.21-.5,.28-1.01,.41-1.55,.41-.46,0-.88-.1-1.26-.31-.38-.2-.69-.51-.92-.93s-.35-.92-.35-1.52c0-.77,.15-1.43,.46-1.99Zm3.22,.53c-.1-.14-.22-.22-.36-.22-.13,0-.25,.05-.37,.16s-.22,.26-.3,.47c-.08,.2-.12,.44-.12,.7,0,.28,.05,.49,.14,.64,.1,.15,.22,.22,.36,.22,.12,0,.24-.06,.37-.17,.12-.11,.23-.27,.31-.47s.12-.43,.12-.7c0-.29-.05-.5-.14-.65Z"/>
  </g>
</svg>