<?xml version="1.0" encoding="UTF-8"?>
<svg id="Layer_1" data-name="Layer 1" xmlns="http://www.w3.org/2000/svg" viewBox="0 0 40.72 43.51">
  <defs>
    <style>
      .cls-1 {
        fill: #a2847b;
      }

      .cls-2 {
        fill: none;
        stroke: #f2e7d9;
        stroke-miterlimit: 10;
        stroke-width: 6px;
      }

      .cls-3 {
        fill: #f2e8da;
      }
    </style>
  </defs>
  <rect class="cls-1" x="18.19" y="3.1" width="4.03" height="31.21" rx="1.76" ry="1.76" transform="translate(1.49 38.91) rotate(-90)"/>
  <rect class="cls-3" x="26.54" y="26.16" width="5.82" height="5.08" rx="1.58" ry="1.58"/>
  <path class="cls-1" d="M15.77,39.93c-1.7,.02-3.25,.17-5.72,0-.77-.05-2.06-.16-2.86-1.04-.33-.36-.47-.72-.56-.98-.03-.09-.58-1.67,.28-3.06,0,0,.25-.4,1.29-1.43,0,0-.21-.6-.24-.72-.23-.72,.01-1.55,.07-1.73,.43-1.35,1.68-2.06,1.95-2.21,.25-.14,1.04-.55,1.04-.55-.36-1.18-.37-1.34-.37-1.34-.06-.79,.38-1.78,1.15-2.15,.61-.29,1.57-.26,1.57-.26,0,0,7.57-.13,7.57-.13,0,0,.4-.38,.63-.36,.37,.04,.86,1.27,.49,2.38-.36,1.1-1.54,2.02-1.54,2.02,0,0,1.54,.45,2.27,1.43,.59,.8,.57,1.84,.56,2.41,0,.37-.07,1.28-.07,1.28,0,0,.76,.61,.95,.78,1.09,.98,1.24,3.58-.07,4.72-.22,.19-.43,.3-.52,.34-2.07,1-4.74,.57-7.85,.6Z"/>
  <rect class="cls-2" x="3" y="7.44" width="34.72" height="33.07" rx="5.68" ry="5.68"/>
  <rect class="cls-1" x="27.18" width="4.03" height="13.16" rx="1.76" ry="1.76"/>
  <rect class="cls-1" x="10.27" y="0" width="4.03" height="13.16" rx="1.76" ry="1.76"/>
</svg>