<?xml version="1.0" encoding="utf-8"?>
<!-- Generator: Adobe Illustrator 27.0.0, SVG Export Plug-In . SVG Version: 6.00 Build 0)  -->
<svg version="1.1" xmlns="http://www.w3.org/2000/svg" xmlns:xlink="http://www.w3.org/1999/xlink" x="0px" y="0px"
	 viewBox="0 0 40.8 43.5" style="enable-background:new 0 0 40.8 43.5;" xml:space="preserve">
<style type="text/css">
	.st0{fill:#A2847B;}
	.st1{fill:none;stroke:#A2847B;stroke-width:3;stroke-miterlimit:10;}
</style>
<path class="st0" d="M20.4,29.2c-1.6,0-3.2,0.2-5.5,0c-0.7,0-2-0.2-2.8-1c-0.3-0.3-0.4-0.7-0.5-0.9c0-0.1-0.6-1.6,0.3-2.9
	c0,0,0.2-0.4,1.3-1.3c0,0-0.2-0.6-0.2-0.7c-0.2-0.7,0-1.5,0.1-1.6c0.4-1.3,1.6-1.9,1.9-2.1c0.2-0.1,1-0.5,1-0.5
	c-0.4-1.1-0.4-1.2-0.4-1.2c-0.1-0.7,0.4-1.7,1.1-2c0.6-0.3,1.5-0.2,1.5-0.2l7.3-0.1c0,0,0.4-0.4,0.6-0.3c0.4,0,0.8,1.2,0.5,2.2
	c-0.4,1-1.5,1.9-1.5,1.9s1.5,0.4,2.2,1.3c0.6,0.7,0.6,1.7,0.5,2.2c0,0.3-0.1,1.2-0.1,1.2s0.7,0.6,0.9,0.7c1.1,0.9,1.2,3.3-0.1,4.4
	c-0.2,0.2-0.4,0.3-0.5,0.3C26,29.5,23.4,29.1,20.4,29.2L20.4,29.2z"/>
<circle class="st1" cx="20.4" cy="22.2" r="17.2"/>
</svg>
