<?xml version="1.0" encoding="UTF-8"?>
<!DOCTYPE svg PUBLIC "-//W3C//DTD SVG 1.1//EN" "http://www.w3.org/Graphics/SVG/1.1/DTD/svg11.dtd">
<svg xmlns="http://www.w3.org/2000/svg" version="1.1" width="512px" height="512px" style="shape-rendering:geometricPrecision; text-rendering:geometricPrecision; image-rendering:optimizeQuality; fill-rule:evenodd; clip-rule:evenodd" xmlns:xlink="http://www.w3.org/1999/xlink">
<g><path style="opacity:0.994" fill="#d0a183" d="M 350.5,193.5 C 344.28,199.537 336.947,203.704 328.5,206C 279.498,209.325 230.498,209.325 181.5,206C 173.545,203.359 166.545,199.192 160.5,193.5C 150.616,179.179 150.116,164.513 159,149.5C 165.335,140.91 173.835,135.743 184.5,134C 212.164,132.423 239.831,131.09 267.5,130C 288.531,125.108 296.031,112.275 290,91.5C 287.628,85.1902 285.462,79.1902 283.5,73.5C 328.898,89.7398 353.898,121.906 358.5,170C 357.912,178.6 355.245,186.433 350.5,193.5 Z"/></g>
<g><path style="opacity:0.998" fill="#b4846b" d="M 160.5,193.5 C 166.545,199.192 173.545,203.359 181.5,206C 230.498,209.325 279.498,209.325 328.5,206C 336.947,203.704 344.28,199.537 350.5,193.5C 371.493,192.753 388.993,200.086 403,215.5C 417.154,235.313 419.154,256.313 409,278.5C 405.363,284.625 401.197,290.292 396.5,295.5C 391.768,297.696 387.102,300.196 382.5,303C 376.066,305.609 369.399,307.275 362.5,308C 290.161,312.65 217.828,312.65 145.5,308C 134.479,306.055 124.479,301.889 115.5,295.5C 96.1867,276.91 91.0201,254.91 100,229.5C 112.431,204.855 132.598,192.855 160.5,193.5 Z"/></g>
<g><path style="opacity:0.995" fill="#a07360" d="M 115.5,295.5 C 124.479,301.889 134.479,306.055 145.5,308C 217.828,312.65 290.161,312.65 362.5,308C 369.399,307.275 376.066,305.609 382.5,303C 387.102,300.196 391.768,297.696 396.5,295.5C 431.912,297.106 455.746,314.439 468,347.5C 473.49,389.39 455.99,416.89 415.5,430C 411.853,430.774 408.186,431.441 404.5,432C 304.836,439.258 205.169,439.258 105.5,432C 67.0431,425.213 45.3764,402.546 40.5,364C 43.7664,330.057 61.7664,308.057 94.5,298C 101.375,296.117 108.375,295.284 115.5,295.5 Z"/></g>
</svg>
